<mxfile host="app.diagrams.net" modified="2024-01-09T03:20:25.459Z" agent="Mozilla/5.0 (Windows NT 10.0; Win64; x64) AppleWebKit/537.36 (KHTML, like Gecko) Chrome/120.0.0.0 Safari/537.36 Edg/120.0.0.0" etag="KsGXFVmA-ITed18MVJ7K" version="22.1.17" type="github">
  <diagram name="Trang-1" id="ErwiorRDN-wNK83X_GED">
    <mxGraphModel dx="907" dy="632" grid="1" gridSize="10" guides="1" tooltips="1" connect="1" arrows="1" fold="1" page="1" pageScale="1" pageWidth="827" pageHeight="1169" math="0" shadow="0">
      <root>
        <mxCell id="0" />
        <mxCell id="1" parent="0" />
        <mxCell id="jO5qIPyX8GDgJjrYHzWO-33" style="edgeStyle=orthogonalEdgeStyle;rounded=1;orthogonalLoop=1;jettySize=auto;html=1;exitX=0.5;exitY=1;exitDx=0;exitDy=0;entryX=0.5;entryY=0;entryDx=0;entryDy=0;labelBackgroundColor=none;strokeColor=#457B9D;fontColor=default;fontSize=15;" parent="1" source="jO5qIPyX8GDgJjrYHzWO-1" target="jO5qIPyX8GDgJjrYHzWO-31" edge="1">
          <mxGeometry relative="1" as="geometry" />
        </mxCell>
        <mxCell id="jO5qIPyX8GDgJjrYHzWO-1" value="Bắt đầu" style="ellipse;whiteSpace=wrap;html=1;labelBackgroundColor=none;fillColor=#A8DADC;strokeColor=#457B9D;fontColor=#1D3557;rounded=1;fontSize=15;" parent="1" vertex="1">
          <mxGeometry x="280" y="80" width="160" height="80" as="geometry" />
        </mxCell>
        <mxCell id="jO5qIPyX8GDgJjrYHzWO-12" style="edgeStyle=orthogonalEdgeStyle;rounded=1;orthogonalLoop=1;jettySize=auto;html=1;exitX=0.5;exitY=1;exitDx=0;exitDy=0;entryX=0.5;entryY=0;entryDx=0;entryDy=0;labelBackgroundColor=none;strokeColor=#457B9D;fontColor=default;fontSize=15;" parent="1" source="jO5qIPyX8GDgJjrYHzWO-2" edge="1">
          <mxGeometry relative="1" as="geometry">
            <mxPoint x="360" y="440" as="targetPoint" />
          </mxGeometry>
        </mxCell>
        <mxCell id="jO5qIPyX8GDgJjrYHzWO-2" value="&lt;font style=&quot;font-size: 15px;&quot;&gt;ip_address = a&lt;br style=&quot;font-size: 15px;&quot;&gt;&lt;/font&gt;" style="shape=parallelogram;perimeter=parallelogramPerimeter;whiteSpace=wrap;html=1;fixedSize=1;labelBackgroundColor=none;fillColor=#A8DADC;strokeColor=#457B9D;fontColor=#1D3557;rounded=1;fontSize=15;" parent="1" vertex="1">
          <mxGeometry x="280" y="320" width="160" height="80" as="geometry" />
        </mxCell>
        <mxCell id="jO5qIPyX8GDgJjrYHzWO-7" style="edgeStyle=orthogonalEdgeStyle;rounded=1;orthogonalLoop=1;jettySize=auto;html=1;exitX=0.875;exitY=0.5;exitDx=0;exitDy=0;entryX=0.5;entryY=0;entryDx=0;entryDy=0;labelBackgroundColor=none;strokeColor=#457B9D;fontColor=default;exitPerimeter=0;fontSize=15;" parent="1" source="jO5qIPyX8GDgJjrYHzWO-3" target="jO5qIPyX8GDgJjrYHzWO-5" edge="1">
          <mxGeometry relative="1" as="geometry">
            <Array as="points">
              <mxPoint x="200" y="600" />
            </Array>
          </mxGeometry>
        </mxCell>
        <mxCell id="jO5qIPyX8GDgJjrYHzWO-30" value="Sai" style="edgeLabel;html=1;align=center;verticalAlign=middle;resizable=0;points=[];labelBackgroundColor=none;fontColor=#1D3557;rounded=1;fontSize=15;" parent="jO5qIPyX8GDgJjrYHzWO-7" vertex="1" connectable="0">
          <mxGeometry x="-0.35" y="-1" relative="1" as="geometry">
            <mxPoint x="-96" y="-14" as="offset" />
          </mxGeometry>
        </mxCell>
        <mxCell id="jO5qIPyX8GDgJjrYHzWO-8" style="edgeStyle=orthogonalEdgeStyle;rounded=1;orthogonalLoop=1;jettySize=auto;html=1;exitX=0.045;exitY=0.553;exitDx=0;exitDy=0;labelBackgroundColor=none;strokeColor=#457B9D;fontColor=default;exitPerimeter=0;fontSize=15;" parent="1" source="jO5qIPyX8GDgJjrYHzWO-3" target="jO5qIPyX8GDgJjrYHzWO-6" edge="1">
          <mxGeometry relative="1" as="geometry">
            <Array as="points">
              <mxPoint x="287" y="600" />
              <mxPoint x="520" y="600" />
            </Array>
          </mxGeometry>
        </mxCell>
        <mxCell id="jO5qIPyX8GDgJjrYHzWO-29" value="Đúng" style="edgeLabel;html=1;align=center;verticalAlign=middle;resizable=0;points=[];labelBackgroundColor=none;fontColor=#1D3557;rounded=1;fontSize=15;" parent="jO5qIPyX8GDgJjrYHzWO-8" vertex="1" connectable="0">
          <mxGeometry x="-0.2833" y="-1" relative="1" as="geometry">
            <mxPoint x="98" y="-16" as="offset" />
          </mxGeometry>
        </mxCell>
        <mxCell id="jO5qIPyX8GDgJjrYHzWO-3" value="&lt;font style=&quot;font-size: 14px;&quot;&gt;re.match(r&lt;br&gt;&#39;\d+\.\d+\.\d+\.\d+&#39;,&lt;br style=&quot;&quot;&gt;ip_address)&lt;/font&gt;" style="rhombus;whiteSpace=wrap;html=1;labelBackgroundColor=none;fillColor=#A8DADC;strokeColor=#457B9D;fontColor=#1D3557;rounded=1;fontSize=15;" parent="1" vertex="1">
          <mxGeometry x="280" y="560" width="160" height="80" as="geometry" />
        </mxCell>
        <mxCell id="jO5qIPyX8GDgJjrYHzWO-15" style="edgeStyle=orthogonalEdgeStyle;rounded=1;orthogonalLoop=1;jettySize=auto;html=1;exitX=0.5;exitY=1;exitDx=0;exitDy=0;labelBackgroundColor=none;strokeColor=#457B9D;fontColor=default;fontSize=15;" parent="1" source="jO5qIPyX8GDgJjrYHzWO-5" edge="1">
          <mxGeometry relative="1" as="geometry">
            <mxPoint x="360.0000000000002" y="800" as="targetPoint" />
          </mxGeometry>
        </mxCell>
        <mxCell id="jO5qIPyX8GDgJjrYHzWO-5" value="Viết vào file_hosts:&lt;br style=&quot;font-size: 15px;&quot;&gt;&quot;127.0.0.1&quot;+ip_address" style="rounded=1;whiteSpace=wrap;html=1;labelBackgroundColor=none;fillColor=#A8DADC;strokeColor=#457B9D;fontColor=#1D3557;fontSize=15;" parent="1" vertex="1">
          <mxGeometry x="120" y="640" width="160" height="80" as="geometry" />
        </mxCell>
        <mxCell id="jO5qIPyX8GDgJjrYHzWO-17" style="edgeStyle=orthogonalEdgeStyle;rounded=1;orthogonalLoop=1;jettySize=auto;html=1;exitX=0.5;exitY=1;exitDx=0;exitDy=0;entryX=0.5;entryY=0;entryDx=0;entryDy=0;labelBackgroundColor=none;strokeColor=#457B9D;fontColor=default;fontSize=15;" parent="1" source="jO5qIPyX8GDgJjrYHzWO-6" edge="1">
          <mxGeometry relative="1" as="geometry">
            <mxPoint x="360" y="800" as="targetPoint" />
          </mxGeometry>
        </mxCell>
        <mxCell id="jO5qIPyX8GDgJjrYHzWO-6" value="Viết vào file_hosts:&lt;br style=&quot;font-size: 15px;&quot;&gt;ip_address" style="rounded=1;whiteSpace=wrap;html=1;labelBackgroundColor=none;fillColor=#A8DADC;strokeColor=#457B9D;fontColor=#1D3557;fontSize=15;" parent="1" vertex="1">
          <mxGeometry x="440" y="640" width="160" height="80" as="geometry" />
        </mxCell>
        <mxCell id="jO5qIPyX8GDgJjrYHzWO-10" style="edgeStyle=orthogonalEdgeStyle;rounded=1;orthogonalLoop=1;jettySize=auto;html=1;exitX=0.501;exitY=0.056;exitDx=0;exitDy=0;entryX=0.5;entryY=0;entryDx=0;entryDy=0;labelBackgroundColor=none;strokeColor=#457B9D;fontColor=default;fontSize=15;exitPerimeter=0;" parent="1" source="hjbWJsS-LxJKD2nZ0hJS-1" target="jO5qIPyX8GDgJjrYHzWO-3" edge="1">
          <mxGeometry relative="1" as="geometry">
            <mxPoint x="360" y="520" as="sourcePoint" />
          </mxGeometry>
        </mxCell>
        <mxCell id="jO5qIPyX8GDgJjrYHzWO-27" value="Sai" style="edgeLabel;html=1;align=center;verticalAlign=middle;resizable=0;points=[];labelBackgroundColor=none;fontColor=#1D3557;rounded=1;fontSize=15;" parent="jO5qIPyX8GDgJjrYHzWO-10" vertex="1" connectable="0">
          <mxGeometry x="-0.1974" y="1" relative="1" as="geometry">
            <mxPoint x="19" y="49" as="offset" />
          </mxGeometry>
        </mxCell>
        <mxCell id="jO5qIPyX8GDgJjrYHzWO-36" style="edgeStyle=orthogonalEdgeStyle;rounded=1;orthogonalLoop=1;jettySize=auto;html=1;exitX=0.125;exitY=0.5;exitDx=0;exitDy=0;strokeColor=#457B9D;fontColor=default;fillColor=#A8DADC;fontSize=15;exitPerimeter=0;labelBackgroundColor=none;" parent="1" source="hjbWJsS-LxJKD2nZ0hJS-1" target="jO5qIPyX8GDgJjrYHzWO-24" edge="1">
          <mxGeometry relative="1" as="geometry">
            <mxPoint x="440" y="480" as="sourcePoint" />
          </mxGeometry>
        </mxCell>
        <mxCell id="hjbWJsS-LxJKD2nZ0hJS-2" value="Đúng" style="edgeLabel;html=1;align=center;verticalAlign=middle;resizable=0;points=[];labelBackgroundColor=none;fontColor=#1D3557;fontSize=15;" vertex="1" connectable="0" parent="jO5qIPyX8GDgJjrYHzWO-36">
          <mxGeometry x="-0.2608" y="-1" relative="1" as="geometry">
            <mxPoint y="-21" as="offset" />
          </mxGeometry>
        </mxCell>
        <mxCell id="jO5qIPyX8GDgJjrYHzWO-19" style="edgeStyle=orthogonalEdgeStyle;rounded=1;orthogonalLoop=1;jettySize=auto;html=1;exitX=0.5;exitY=1;exitDx=0;exitDy=0;labelBackgroundColor=none;strokeColor=#457B9D;fontColor=default;fontSize=15;" parent="1" source="jO5qIPyX8GDgJjrYHzWO-18" edge="1">
          <mxGeometry relative="1" as="geometry">
            <mxPoint x="359.57894736842104" y="920" as="targetPoint" />
          </mxGeometry>
        </mxCell>
        <mxCell id="jO5qIPyX8GDgJjrYHzWO-18" value="Thông báo thành công" style="rounded=1;whiteSpace=wrap;html=1;labelBackgroundColor=none;fillColor=#A8DADC;strokeColor=#457B9D;fontColor=#1D3557;fontSize=15;" parent="1" vertex="1">
          <mxGeometry x="280" y="800" width="160" height="80" as="geometry" />
        </mxCell>
        <mxCell id="jO5qIPyX8GDgJjrYHzWO-22" style="edgeStyle=orthogonalEdgeStyle;rounded=1;orthogonalLoop=1;jettySize=auto;html=1;exitX=0.5;exitY=1;exitDx=0;exitDy=0;entryX=0.5;entryY=0;entryDx=0;entryDy=0;labelBackgroundColor=none;strokeColor=#457B9D;fontColor=default;fontSize=15;" parent="1" source="jO5qIPyX8GDgJjrYHzWO-20" target="jO5qIPyX8GDgJjrYHzWO-21" edge="1">
          <mxGeometry relative="1" as="geometry" />
        </mxCell>
        <mxCell id="jO5qIPyX8GDgJjrYHzWO-20" value="Làm mới bảng hiển thị &lt;br style=&quot;font-size: 15px;&quot;&gt;địa chỉ chặn" style="rounded=1;whiteSpace=wrap;html=1;labelBackgroundColor=none;fillColor=#A8DADC;strokeColor=#457B9D;fontColor=#1D3557;fontSize=15;" parent="1" vertex="1">
          <mxGeometry x="280" y="920" width="160" height="80" as="geometry" />
        </mxCell>
        <mxCell id="jO5qIPyX8GDgJjrYHzWO-21" value="&amp;nbsp;Kết thúc" style="ellipse;whiteSpace=wrap;html=1;labelBackgroundColor=none;fillColor=#A8DADC;strokeColor=#457B9D;fontColor=#1D3557;rounded=1;fontSize=15;" parent="1" vertex="1">
          <mxGeometry x="280" y="1040" width="160" height="80" as="geometry" />
        </mxCell>
        <mxCell id="jO5qIPyX8GDgJjrYHzWO-37" style="edgeStyle=orthogonalEdgeStyle;rounded=1;orthogonalLoop=1;jettySize=auto;html=1;exitX=0.5;exitY=1;exitDx=0;exitDy=0;entryX=1;entryY=0.5;entryDx=0;entryDy=0;strokeColor=#457B9D;fontColor=default;fillColor=#A8DADC;fontSize=15;labelBackgroundColor=none;" parent="1" source="jO5qIPyX8GDgJjrYHzWO-24" target="jO5qIPyX8GDgJjrYHzWO-21" edge="1">
          <mxGeometry relative="1" as="geometry" />
        </mxCell>
        <mxCell id="jO5qIPyX8GDgJjrYHzWO-24" value="Thông báo lỗi" style="rounded=1;whiteSpace=wrap;html=1;labelBackgroundColor=none;fillColor=#A8DADC;strokeColor=#457B9D;fontColor=#1D3557;fontSize=15;" parent="1" vertex="1">
          <mxGeometry x="640" y="800" width="160" height="80" as="geometry" />
        </mxCell>
        <mxCell id="jO5qIPyX8GDgJjrYHzWO-34" style="edgeStyle=orthogonalEdgeStyle;rounded=1;orthogonalLoop=1;jettySize=auto;html=1;exitX=0.5;exitY=1;exitDx=0;exitDy=0;strokeColor=#457B9D;fontColor=default;fillColor=#A8DADC;fontSize=15;labelBackgroundColor=none;" parent="1" source="jO5qIPyX8GDgJjrYHzWO-31" target="jO5qIPyX8GDgJjrYHzWO-2" edge="1">
          <mxGeometry relative="1" as="geometry" />
        </mxCell>
        <mxCell id="jO5qIPyX8GDgJjrYHzWO-31" value="Nhận file_path" style="rounded=1;whiteSpace=wrap;html=1;labelBackgroundColor=none;fillColor=#A8DADC;strokeColor=#457B9D;fontColor=#1D3557;fontSize=15;" parent="1" vertex="1">
          <mxGeometry x="280" y="200" width="160" height="80" as="geometry" />
        </mxCell>
        <mxCell id="jO5qIPyX8GDgJjrYHzWO-35" value="Chú thích:&lt;br style=&quot;font-size: 15px;&quot;&gt;a : địa chỉ nhập hoặc&lt;br data-darkreader-inline-border=&quot;&quot; style=&quot;border-color: var(--darkreader-border--border-color); --darkreader-inline-border: var(--darkreader-border--darkreader-border--border-color); font-size: 15px;&quot;&gt;&lt;span style=&quot;font-size: 15px;&quot;&gt;từng dòng trong database&amp;nbsp;hoặc&lt;br style=&quot;font-size: 15px;&quot;&gt;&lt;/span&gt;&lt;span style=&quot;font-size: 15px;&quot;&gt;địa chỉ lịch sử đã chọn&lt;/span&gt;" style="text;html=1;align=left;verticalAlign=middle;resizable=0;points=[];autosize=1;strokeColor=none;fillColor=none;fontColor=#1D3557;fontSize=15;labelBackgroundColor=none;" parent="1" vertex="1">
          <mxGeometry x="80" y="1110" width="230" height="90" as="geometry" />
        </mxCell>
        <mxCell id="hjbWJsS-LxJKD2nZ0hJS-1" value="&lt;font style=&quot;font-size: 15px;&quot;&gt;ip_address có&lt;br&gt;&amp;nbsp;trong file_path&lt;/font&gt;" style="rhombus;whiteSpace=wrap;html=1;labelBackgroundColor=none;fillColor=#A8DADC;strokeColor=#457B9D;fontColor=#1D3557;rounded=1;fontSize=15;" vertex="1" parent="1">
          <mxGeometry x="280" y="440" width="160" height="80" as="geometry" />
        </mxCell>
      </root>
    </mxGraphModel>
  </diagram>
</mxfile>
